<svg id="Smile_emoji" xmlns="http://www.w3.org/2000/svg" xmlns:xlink="http://www.w3.org/1999/xlink" width="15.832" height="15.832" viewBox="0 0 15.832 15.832">
  <defs>
    <filter id="Path_14537">
      <feOffset dy="-1" input="SourceAlpha"/>
      <feGaussianBlur stdDeviation="1.5" result="blur"/>
      <feFlood flood-color="#d97700" result="color"/>
      <feComposite operator="out" in="SourceGraphic" in2="blur"/>
      <feComposite operator="in" in="color"/>
      <feComposite operator="in" in2="SourceGraphic"/>
    </filter>
    <filter id="Path_14533" x="3.655" y="4.156" width="8.425" height="8.425" filterUnits="userSpaceOnUse">
      <feOffset dy="0.5" input="SourceAlpha"/>
      <feGaussianBlur stdDeviation="0.25" result="blur-2"/>
      <feFlood flood-opacity="0.161"/>
      <feComposite operator="in" in2="blur-2"/>
      <feComposite in="SourceGraphic"/>
    </filter>
    <filter id="Path_14533-2" x="3.655" y="4.156" width="8.425" height="8.425" filterUnits="userSpaceOnUse">
      <feOffset dy="1" input="SourceAlpha"/>
      <feGaussianBlur stdDeviation="1.5" result="blur-3"/>
      <feFlood flood-color="#6b3102" result="color-2"/>
      <feComposite operator="out" in="SourceGraphic" in2="blur-3"/>
      <feComposite operator="in" in="color-2"/>
      <feComposite operator="in" in2="SourceGraphic"/>
    </filter>
  </defs>
  <path id="Path_14534" data-name="Path 14534" d="M14.916-51.105a7.8,7.8,0,0,1,2.106.282,7.888,7.888,0,0,1,1.89.8,7.968,7.968,0,0,1,1.6,1.239,7.968,7.968,0,0,1,1.239,1.6,7.889,7.889,0,0,1,.8,1.89,7.8,7.8,0,0,1,.282,2.106,7.8,7.8,0,0,1-.282,2.106,7.889,7.889,0,0,1-.8,1.89,7.968,7.968,0,0,1-1.239,1.6,7.968,7.968,0,0,1-1.6,1.239,7.889,7.889,0,0,1-1.89.8,7.8,7.8,0,0,1-2.106.282,7.8,7.8,0,0,1-2.106-.282,7.888,7.888,0,0,1-1.89-.8,7.968,7.968,0,0,1-1.6-1.239,7.968,7.968,0,0,1-1.239-1.6,7.889,7.889,0,0,1-.8-1.89A7.8,7.8,0,0,1,7-43.189,7.8,7.8,0,0,1,7.282-45.3a7.889,7.889,0,0,1,.8-1.89,7.968,7.968,0,0,1,1.239-1.6,7.968,7.968,0,0,1,1.6-1.239,7.888,7.888,0,0,1,1.89-.8A7.8,7.8,0,0,1,14.916-51.105Z" transform="translate(-7 51.105)" fill="#ffbb01"/>
  <g transform="matrix(1, 0, 0, 1, 0, 0)" filter="url(#Path_14537)">
    <path id="Path_14537-2" data-name="Path 14537" d="M14.916-51.105a7.8,7.8,0,0,1,2.106.282,7.888,7.888,0,0,1,1.89.8,7.968,7.968,0,0,1,1.6,1.239,7.968,7.968,0,0,1,1.239,1.6,7.889,7.889,0,0,1,.8,1.89,7.8,7.8,0,0,1,.282,2.106,7.8,7.8,0,0,1-.282,2.106,7.889,7.889,0,0,1-.8,1.89,7.968,7.968,0,0,1-1.239,1.6,7.968,7.968,0,0,1-1.6,1.239,7.889,7.889,0,0,1-1.89.8,7.8,7.8,0,0,1-2.106.282,7.8,7.8,0,0,1-2.106-.282,7.888,7.888,0,0,1-1.89-.8,7.968,7.968,0,0,1-1.6-1.239,7.968,7.968,0,0,1-1.239-1.6,7.889,7.889,0,0,1-.8-1.89A7.8,7.8,0,0,1,7-43.189,7.8,7.8,0,0,1,7.282-45.3a7.889,7.889,0,0,1,.8-1.89,7.968,7.968,0,0,1,1.239-1.6,7.968,7.968,0,0,1,1.6-1.239,7.888,7.888,0,0,1,1.89-.8A7.8,7.8,0,0,1,14.916-51.105Z" transform="translate(-7 51.11)" fill="#fff"/>
  </g>
  <g data-type="innerShadowGroup">
    <g transform="matrix(1, 0, 0, 1, 0, 0)" filter="url(#Path_14533)">
      <path id="Path_14533-3" data-name="Path 14533" d="M25.435-28.974a.724.724,0,0,1-.293-.059.753.753,0,0,1-.234-.158.753.753,0,0,1-.158-.234.724.724,0,0,1-.059-.293V-30.7a.732.732,0,0,1,.059-.289.742.742,0,0,1,.158-.237.753.753,0,0,1,.234-.158.724.724,0,0,1,.293-.059.707.707,0,0,1,.286.059.765.765,0,0,1,.237.162.765.765,0,0,1,.162.237.707.707,0,0,1,.059.286v.984a.707.707,0,0,1-.059.286.765.765,0,0,1-.162.237.765.765,0,0,1-.237.162A.707.707,0,0,1,25.435-28.974Zm5.438-2.471a.732.732,0,0,1,.289.059.742.742,0,0,1,.237.158.743.743,0,0,1,.158.237.732.732,0,0,1,.059.289v.984a.724.724,0,0,1-.059.293.753.753,0,0,1-.158.234.742.742,0,0,1-.237.158.732.732,0,0,1-.289.059.724.724,0,0,1-.293-.059.687.687,0,0,1-.231-.162.832.832,0,0,1-.155-.237.707.707,0,0,1-.059-.286V-30.7a.707.707,0,0,1,.059-.286.833.833,0,0,1,.155-.237.687.687,0,0,1,.231-.162A.724.724,0,0,1,30.873-31.445Zm-2.719,5.934A4.707,4.707,0,0,0,29.3-25.66a3.819,3.819,0,0,0,1.067-.437,1.939,1.939,0,0,0,.176-.117q.093-.069.193-.134a1.439,1.439,0,0,1,.2-.11.477.477,0,0,1,.2-.045.465.465,0,0,1,.344.148.481.481,0,0,1,.145.348.431.431,0,0,1-.052.224.824.824,0,0,1-.148.176,2.586,2.586,0,0,1-.671.472,5.336,5.336,0,0,1-.857.341,6.475,6.475,0,0,1-.909.207,5.556,5.556,0,0,1-.826.069,5.556,5.556,0,0,1-.826-.069,6.475,6.475,0,0,1-.909-.207,5.335,5.335,0,0,1-.857-.341,2.586,2.586,0,0,1-.671-.472.824.824,0,0,1-.148-.176.431.431,0,0,1-.052-.224.465.465,0,0,1,.148-.344.481.481,0,0,1,.348-.145.487.487,0,0,1,.193.045,1.565,1.565,0,0,1,.2.107q.1.062.193.131t.169.117a3.635,3.635,0,0,0,1.063.441A4.8,4.8,0,0,0,28.154-25.512Z" transform="translate(-20.29 35.85)" fill="#a76602"/>
    </g>
    <g transform="matrix(1, 0, 0, 1, 0, 0)" filter="url(#Path_14533-2)">
      <path id="Path_14533-4" data-name="Path 14533" d="M25.435-28.974a.724.724,0,0,1-.293-.059.753.753,0,0,1-.234-.158.753.753,0,0,1-.158-.234.724.724,0,0,1-.059-.293V-30.7a.732.732,0,0,1,.059-.289.742.742,0,0,1,.158-.237.753.753,0,0,1,.234-.158.724.724,0,0,1,.293-.059.707.707,0,0,1,.286.059.765.765,0,0,1,.237.162.765.765,0,0,1,.162.237.707.707,0,0,1,.059.286v.984a.707.707,0,0,1-.059.286.765.765,0,0,1-.162.237.765.765,0,0,1-.237.162A.707.707,0,0,1,25.435-28.974Zm5.438-2.471a.732.732,0,0,1,.289.059.742.742,0,0,1,.237.158.743.743,0,0,1,.158.237.732.732,0,0,1,.059.289v.984a.724.724,0,0,1-.059.293.753.753,0,0,1-.158.234.742.742,0,0,1-.237.158.732.732,0,0,1-.289.059.724.724,0,0,1-.293-.059.687.687,0,0,1-.231-.162.832.832,0,0,1-.155-.237.707.707,0,0,1-.059-.286V-30.7a.707.707,0,0,1,.059-.286.833.833,0,0,1,.155-.237.687.687,0,0,1,.231-.162A.724.724,0,0,1,30.873-31.445Zm-2.719,5.934A4.707,4.707,0,0,0,29.3-25.66a3.819,3.819,0,0,0,1.067-.437,1.939,1.939,0,0,0,.176-.117q.093-.069.193-.134a1.439,1.439,0,0,1,.2-.11.477.477,0,0,1,.2-.045.465.465,0,0,1,.344.148.481.481,0,0,1,.145.348.431.431,0,0,1-.052.224.824.824,0,0,1-.148.176,2.586,2.586,0,0,1-.671.472,5.336,5.336,0,0,1-.857.341,6.475,6.475,0,0,1-.909.207,5.556,5.556,0,0,1-.826.069,5.556,5.556,0,0,1-.826-.069,6.475,6.475,0,0,1-.909-.207,5.335,5.335,0,0,1-.857-.341,2.586,2.586,0,0,1-.671-.472.824.824,0,0,1-.148-.176.431.431,0,0,1-.052-.224.465.465,0,0,1,.148-.344.481.481,0,0,1,.348-.145.487.487,0,0,1,.193.045,1.565,1.565,0,0,1,.2.107q.1.062.193.131t.169.117a3.635,3.635,0,0,0,1.063.441A4.8,4.8,0,0,0,28.154-25.512Z" transform="translate(-20.29 35.85)" fill="#fff"/>
    </g>
  </g>
</svg>
